<?xml version="1.0" ?><!DOCTYPE svg  PUBLIC '-//W3C//DTD SVG 1.1//EN'  'http://www.w3.org/Graphics/SVG/1.1/DTD/svg11.dtd'><svg enable-background="new 0 0 500 500" height="500px" id="Layer_1" version="1.1" viewBox="0 0 500 500" width="500px" xml:space="preserve" xmlns="http://www.w3.org/2000/svg" xmlns:xlink="http://www.w3.org/1999/xlink"><path clip-rule="evenodd" d="M227.787,249.5c0-12.536,10.177-22.713,22.713-22.713  c12.537,0,22.715,10.177,22.715,22.713c0,12.537-10.178,22.715-22.715,22.715C237.964,272.216,227.787,262.037,227.787,249.5z   M250.5,190.445c-32.615,0-59.056,26.44-59.056,59.055c0,32.615,26.441,59.056,59.056,59.056c32.614,0,59.056-26.441,59.056-59.056  C309.556,216.885,283.114,190.445,250.5,190.445z M36.992,249.5c0,117.932,95.578,213.508,213.508,213.508  c117.932,0,213.508-95.576,213.508-213.508c0-117.93-95.576-213.51-213.508-213.51C132.57,35.991,36.992,131.571,36.992,249.5z   M250.5,154.103c52.693,0,95.396,42.705,95.396,95.398c0,52.694-42.702,95.396-95.396,95.396c-52.694,0-95.398-42.702-95.398-95.396  C155.102,196.807,197.806,154.103,250.5,154.103z" fill="#fff" fill-rule="evenodd"/></svg>