<svg height="500" width="500" xmlns="http://www.w3.org/2000/svg"><path clip-rule="evenodd" d="M227.787 249.5c0-12.536 10.177-22.713 22.713-22.713 12.537 0 22.715 10.177 22.715 22.713 0 12.537-10.178 22.715-22.715 22.715-12.536.001-22.713-10.178-22.713-22.715zm22.713-59.055c-32.615 0-59.056 26.44-59.056 59.055 0 32.615 26.441 59.056 59.056 59.056 32.614 0 59.056-26.441 59.056-59.056 0-32.615-26.442-59.055-59.056-59.055zM36.992 249.5c0 117.932 95.578 213.508 213.508 213.508 117.932 0 213.508-95.576 213.508-213.508 0-117.93-95.576-213.51-213.508-213.51-117.93.001-213.508 95.581-213.508 213.51zM250.5 154.103c52.693 0 95.396 42.705 95.396 95.398 0 52.694-42.702 95.396-95.396 95.396s-95.398-42.702-95.398-95.396 42.704-95.398 95.398-95.398z" fill="#fff" fill-rule="evenodd"/></svg>