<svg height="56.693" width="56.693" xmlns="http://www.w3.org/2000/svg"><g clip-rule="evenodd" fill-rule="evenodd" fill="#fff"><path d="M45.575 45.243a1.668 1.668 0 0 0-.715.162c-.26.104-.523.223-.77.328l-.367.152-.477.189v.006c-5.168 2.096-10.596 3.324-15.619 3.432-.184.006-.369.006-.551.006-7.898.004-14.343-3.66-20.848-7.27a1.477 1.477 0 0 0-.686-.182c-.294 0-.593.109-.811.314a1.11 1.11 0 0 0-.347.807c-.001.395.212.756.507.99 6.104 5.299 12.793 10.223 21.788 10.227.176 0 .354-.004.535-.008 5.721-.129 12.195-2.061 17.217-5.217l.029-.02a17.36 17.36 0 0 0 1.936-1.336c.387-.287.652-.732.648-1.197-.012-.824-.713-1.383-1.469-1.383z"/><path d="M52.544 42.317v-.002c-.02-.504-.127-.885-.336-1.203l-.021-.029-.025-.031c-.213-.232-.416-.32-.639-.418-.658-.254-1.617-.389-2.773-.393-.83 0-1.748.078-2.666.279l-.002-.061-.928.309-.016.008-.523.17v.023a8.292 8.292 0 0 0-1.691.947c-.32.242-.59.561-.605 1.051a.977.977 0 0 0 .354.754c.223.182.484.242.713.242a.87.87 0 0 0 .15-.01l.045-.004.035-.006c.453-.096 1.113-.16 1.885-.27a19.06 19.06 0 0 1 1.975-.127c.432-.002.818.027 1.084.086a1.26 1.26 0 0 1 .328.111.933.933 0 0 1 .027.266c.006.51-.213 1.455-.508 2.377-.289.924-.641 1.85-.875 2.465-.055.143-.09.297-.09.467-.004.248.096.547.311.746.209.199.479.277.707.277h.01c.342-.004.631-.139.881-.334 2.352-2.115 3.168-5.488 3.201-7.389l-.008-.301zM31.046 19.657c-1.383.104-2.977.209-4.572.42-2.443.322-4.889.744-6.907 1.703-3.932 1.594-6.59 4.995-6.59 9.989 0 6.273 4.038 9.461 9.141 9.461 1.699 0 3.084-.215 4.355-.531 2.021-.639 3.721-1.807 5.742-3.936 1.168 1.596 1.488 2.342 3.506 4.041.531.211 1.062.211 1.486-.105 1.277-1.064 3.51-2.979 4.678-4.039.533-.426.426-1.064.105-1.592-1.166-1.49-2.338-2.766-2.338-5.637v-9.565c0-4.039.32-7.76-2.656-10.52-2.443-2.23-6.27-3.082-9.246-3.082h-1.277c-5.418.314-11.159 2.654-12.434 9.352-.213.852.426 1.168.852 1.273l5.95.744c.641-.105.957-.639 1.064-1.166.531-2.34 2.443-3.51 4.568-3.723h.428c1.275 0 2.656.533 3.4 1.596.85 1.275.744 2.977.744 4.465v.852zm-1.168 12.645c-.744 1.484-2.021 2.441-3.404 2.766-.211 0-.529.105-.85.105-2.336 0-3.719-1.809-3.719-4.465 0-3.402 2.02-4.996 4.568-5.74 1.383-.318 2.977-.426 4.572-.426v1.277c.001 2.444.106 4.356-1.167 6.483z"/></g></svg>