<?xml version="1.0" encoding="UTF-8" standalone="no"?><!DOCTYPE svg PUBLIC "-//W3C//DTD SVG 1.1//EN" "http://www.w3.org/Graphics/SVG/1.1/DTD/svg11.dtd"><svg width="100%" height="100%" viewBox="0 0 512 512" version="1.1" xmlns="http://www.w3.org/2000/svg" xmlns:xlink="http://www.w3.org/1999/xlink" xml:space="preserve" xmlns:serif="http://www.serif.com/" style="fill-rule:evenodd;clip-rule:evenodd;stroke-linejoin:round;stroke-miterlimit:1.41421;"><circle cx="256" cy="256" r="256" style="fill:#b71c1c;"/><path d="M228.64,154.192l55.296,0l0,52.416l-10.08,76.896l-34.848,0l-10.368,-76.896l0,-52.416Zm26.496,149.472c8.064,0 14.64,2.496 19.728,7.488c5.088,4.992 7.632,11.424 7.632,19.296c0,8.064 -2.544,14.64 -7.632,19.728c-5.088,5.088 -11.664,7.632 -19.728,7.632c-7.872,0 -14.352,-2.544 -19.44,-7.632c-5.088,-5.088 -7.632,-11.664 -7.632,-19.728c0,-7.872 2.544,-14.304 7.632,-19.296c5.088,-4.992 11.568,-7.488 19.44,-7.488Z" style="fill:#fff;fill-rule:nonzero;"/></svg>