<svg viewBox="0 0 512 512" xmlns="http://www.w3.org/2000/svg" fill-rule="evenodd" clip-rule="evenodd" stroke-linejoin="round" stroke-miterlimit="1.414"><path fill="#10bc4c" d="M0 0h512v512H0z"/><path d="M358.4 179.2V128H256v140.8a64.012 64.012 0 0 0-38.4-12.8c-35.109 0-64 28.891-64 64s28.891 64 64 64 64-28.891 64-64V179.2h76.8M327.893 408.107a142.754 142.754 0 0 0 29.014-96 7.868 7.868 0 0 1-.046-.854c0-4.355 3.584-7.939 7.939-7.939 4.034 0 7.46 3.075 7.893 7.086a159.824 159.824 0 0 1-33.28 108.373c-3.199 3.07-8.32 3.07-11.52 0a8.986 8.986 0 0 1 0-11.306m-23.466-5.547a6.403 6.403 0 0 1 0-9.387A111.615 111.615 0 0 0 330.88 310.4a6.589 6.589 0 0 1-.204-1.63c0-3.628 2.985-6.613 6.613-6.613 3.628 0 6.614 2.985 6.614 6.613 0 .117-.003.233-.01.35a125.91 125.91 0 0 1-30.293 92.8 5.977 5.977 0 0 1-4.373 1.905 5.978 5.978 0 0 1-4.374-1.905M283.52 387.2a5.12 5.12 0 0 1 0-7.467 98.596 98.596 0 0 0 22.827-72.746c0-2.926 2.407-5.334 5.333-5.334s5.333 2.408 5.333 5.334a110.118 110.118 0 0 1-25.6 80 5.123 5.123 0 0 1-7.68 0m129.707-14.72v2.56" fill="#fff" fill-rule="nonzero"/></svg>