<?xml version="1.0" encoding="UTF-8" standalone="no"?><!DOCTYPE svg PUBLIC "-//W3C//DTD SVG 1.1//EN" "http://www.w3.org/Graphics/SVG/1.1/DTD/svg11.dtd"><svg width="100%" height="100%" viewBox="0 0 512 512" version="1.1" xmlns="http://www.w3.org/2000/svg" xmlns:xlink="http://www.w3.org/1999/xlink" xml:space="preserve" xmlns:serif="http://www.serif.com/" style="fill-rule:evenodd;clip-rule:evenodd;stroke-linejoin:round;stroke-miterlimit:1.41421;"><rect x="0" y="0" width="512" height="512" style="fill:#10bc4c;"/><g id="Ebene_1"><path d="M358.4,179.2l0,-51.2l-102.4,0l0,140.8c-11.076,-8.307 -24.555,-12.8 -38.4,-12.8c-35.109,0 -64,28.891 -64,64c0,35.109 28.891,64 64,64c35.109,0 64,-28.891 64,-64l0,-140.8l76.8,0" style="fill:#fff;fill-rule:nonzero;"/></g><path id="Ebene_2" d="M327.893,408.107c20.961,-27.43 31.274,-61.553 29.014,-96c-0.031,-0.284 -0.046,-0.569 -0.046,-0.854c0,-4.355 3.584,-7.939 7.939,-7.939c4.034,0 7.46,3.075 7.893,7.086c2.525,38.967 -9.32,77.539 -33.28,108.373c-3.199,3.07 -8.32,3.07 -11.52,0c-2.668,-3.281 -2.668,-8.025 0,-11.306m-23.466,-5.547c-1.306,-1.211 -2.049,-2.913 -2.049,-4.693c0,-1.781 0.743,-3.483 2.049,-4.694c19.468,-22.713 29.006,-52.327 26.453,-82.133c-0.136,-0.533 -0.204,-1.08 -0.204,-1.63c0,-3.628 2.985,-6.613 6.613,-6.613c3.628,0 6.614,2.985 6.614,6.613c0,0.117 -0.003,0.233 -0.01,0.35c2.797,33.735 -8.131,67.212 -30.293,92.8c-1.13,1.214 -2.715,1.905 -4.373,1.905c-1.659,0 -3.244,-0.691 -4.374,-1.905m-21.333,-14.72c-1.031,-0.967 -1.616,-2.32 -1.616,-3.733c0,-1.414 0.585,-2.766 1.616,-3.734c17.053,-20.196 25.284,-46.428 22.827,-72.746c0,-2.926 2.407,-5.334 5.333,-5.334c2.926,0 5.333,2.408 5.333,5.334c2.375,28.991 -6.835,57.773 -25.6,80c-0.971,1.101 -2.371,1.733 -3.84,1.733c-1.468,0 -2.868,-0.632 -3.84,-1.733m129.707,-14.72l0,2.56" style="fill:#fff;fill-rule:nonzero;"/></svg>