<?xml version="1.0" ?><!DOCTYPE svg  PUBLIC '-//W3C//DTD SVG 1.1//EN'  'http://www.w3.org/Graphics/SVG/1.1/DTD/svg11.dtd'><svg height="86px" id="Capa_1" style="enable-background:new 0 0 86 86;" version="1.1" viewBox="0 0 86 86" width="86px" xml:space="preserve" xmlns="http://www.w3.org/2000/svg" xmlns:xlink="http://www.w3.org/1999/xlink"><path d="M77.275,17.176c1.363,2.564,2.039,5.744,2.039,9.557c0,8.666-3.652,15.652-10.945,20.959  c-7.299,5.312-17.492,7.961-30.59,7.961h-3.066c-2.307,0-4.609,1.812-5.129,4.021l-3.682,15.695  c-0.512,2.219-2.82,4.031-5.123,4.031h-6.705l-0.6,2.564C12.953,84.188,14.414,86,16.717,86h10.746c2.305,0,4.613-1.812,5.123-4.031  l3.684-15.695c0.52-2.209,2.822-4.021,5.129-4.021h3.066c13.098,0,23.291-2.648,30.588-7.961C82.348,48.984,86,41.998,86,33.332  c0-3.812-0.678-6.992-2.039-9.557c-1.357-2.547-3.33-4.629-5.902-6.217C77.783,17.393,77.561,17.332,77.275,17.176z M19.217,68.77  L22.9,53.074c0.52-2.209,2.82-4.021,5.127-4.021h3.066c13.1,0,23.293-2.648,30.59-7.961c7.295-5.307,10.945-12.293,10.945-20.959  c0-3.812-0.676-6.992-2.039-9.557c-1.355-2.547-3.33-4.629-5.9-6.215c-2.635-1.611-5.73-2.73-9.314-3.385  C51.779,0.326,47.576,0,42.744,0H20.367c-2.311,0-4.613,1.801-5.137,4.021L0.105,68.768c-0.521,2.221,0.939,4.031,3.242,4.031  h10.746C16.396,72.799,18.705,70.988,19.217,68.77z M27.992,31.201l3.229-13.744c0.523-2.213,2.83-4.023,5.125-4.023h3.518  c4.1,0,7.207,0.688,9.291,2.062c2.082,1.361,3.127,3.455,3.127,6.297c0,4.299-1.625,7.617-4.85,9.945  c-3.229,2.324-7.719,3.5-13.52,3.5H31.25C28.943,35.238,27.484,33.418,27.992,31.201z" fill="#fff" /></svg>