<svg height="86" width="86" xmlns="http://www.w3.org/2000/svg"><path d="M77.275 17.176c1.363 2.564 2.039 5.744 2.039 9.557 0 8.666-3.652 15.652-10.945 20.959-7.299 5.312-17.492 7.961-30.59 7.961h-3.066c-2.307 0-4.609 1.812-5.129 4.021l-3.682 15.695c-.512 2.219-2.82 4.031-5.123 4.031h-6.705l-.6 2.564c-.521 2.224.94 4.036 3.243 4.036h10.746c2.305 0 4.613-1.812 5.123-4.031l3.684-15.695c.52-2.209 2.822-4.021 5.129-4.021h3.066c13.098 0 23.291-2.648 30.588-7.961C82.348 48.984 86 41.998 86 33.332c0-3.812-.678-6.992-2.039-9.557-1.357-2.547-3.33-4.629-5.902-6.217-.276-.165-.498-.226-.784-.382zM19.217 68.77L22.9 53.074c.52-2.209 2.82-4.021 5.127-4.021h3.066c13.1 0 23.293-2.648 30.59-7.961 7.295-5.307 10.945-12.293 10.945-20.959 0-3.812-.676-6.992-2.039-9.557-1.355-2.547-3.33-4.629-5.9-6.215-2.635-1.611-5.73-2.73-9.314-3.385C51.779.326 47.576 0 42.744 0H20.367c-2.311 0-4.613 1.801-5.137 4.021L.105 68.768c-.521 2.221.939 4.031 3.242 4.031h10.746c2.303 0 4.612-1.811 5.124-4.029zm8.775-37.569l3.229-13.744c.523-2.213 2.83-4.023 5.125-4.023h3.518c4.1 0 7.207.688 9.291 2.062 2.082 1.361 3.127 3.455 3.127 6.297 0 4.299-1.625 7.617-4.85 9.945-3.229 2.324-7.719 3.5-13.52 3.5H31.25c-2.307 0-3.766-1.82-3.258-4.037z" fill="#fff"/></svg>