<?xml version="1.0" encoding="UTF-8" standalone="no"?><!DOCTYPE svg PUBLIC "-//W3C//DTD SVG 1.1//EN" "http://www.w3.org/Graphics/SVG/1.1/DTD/svg11.dtd"><svg width="100%" height="100%" viewBox="0 0 24 24" version="1.1" xmlns="http://www.w3.org/2000/svg" xmlns:xlink="http://www.w3.org/1999/xlink" xml:space="preserve" xmlns:serif="http://www.serif.com/" style="fill-rule:evenodd;clip-rule:evenodd;stroke-linejoin:round;stroke-miterlimit:1.41421;"><g id="Ebene_1"><path d="M16.8,8.4l0,-2.4l-4.8,0l0,6.6c-0.519,-0.389 -1.151,-0.6 -1.8,-0.6c-1.646,0 -3,1.354 -3,3c0,1.646 1.354,3 3,3c1.646,0 3,-1.354 3,-3l0,-6.6l3.6,0" style="fill:#fff;fill-rule:nonzero;"/></g><path id="Ebene_2" d="M15.37,19.13c0.983,-1.286 1.466,-2.885 1.36,-4.5c-0.001,-0.013 -0.002,-0.027 -0.002,-0.04c0,-0.204 0.168,-0.372 0.372,-0.372c0.189,0 0.35,0.144 0.37,0.332c0.118,1.827 -0.437,3.635 -1.56,5.08c-0.15,0.144 -0.39,0.144 -0.54,0c-0.125,-0.154 -0.125,-0.376 0,-0.53m-1.1,-0.26c-0.061,-0.057 -0.096,-0.137 -0.096,-0.22c0,-0.083 0.035,-0.163 0.096,-0.22c0.913,-1.065 1.36,-2.453 1.24,-3.85c-0.006,-0.025 -0.01,-0.051 -0.01,-0.076c0,-0.17 0.14,-0.31 0.31,-0.31c0.17,0 0.31,0.14 0.31,0.31c0,0.005 0,0.011 0,0.016c0.131,1.581 -0.381,3.151 -1.42,4.35c-0.053,0.057 -0.127,0.089 -0.205,0.089c-0.078,0 -0.152,-0.032 -0.205,-0.089m-1,-0.69c-0.048,-0.045 -0.076,-0.109 -0.076,-0.175c0,-0.066 0.028,-0.13 0.076,-0.175c0.799,-0.947 1.185,-2.176 1.07,-3.41c0,-0.137 0.113,-0.25 0.25,-0.25c0.137,0 0.25,0.113 0.25,0.25c0.111,1.359 -0.32,2.708 -1.2,3.75c-0.046,0.052 -0.111,0.081 -0.18,0.081c-0.069,0 -0.134,-0.029 -0.18,-0.081m6.08,-0.69l0,0.12" style="fill:#fff;fill-rule:nonzero;"/></svg>