<svg viewBox="0 0 24 24" xmlns="http://www.w3.org/2000/svg" fill-rule="evenodd" clip-rule="evenodd" stroke-linejoin="round" stroke-miterlimit="1.414"><path d="M16.8 8.4V6H12v6.6a3.003 3.003 0 0 0-1.8-.6c-1.646 0-3 1.354-3 3s1.354 3 3 3 3-1.354 3-3V8.4h3.6M15.37 19.13a6.689 6.689 0 0 0 1.358-4.54c0-.204.168-.372.372-.372.189 0 .35.144.37.332a7.493 7.493 0 0 1-1.56 5.08.391.391 0 0 1-.54 0 .421.421 0 0 1 0-.53m-1.1-.26a.302.302 0 0 1 0-.44 5.23 5.23 0 0 0 1.24-3.85.312.312 0 0 1 .3-.386c.17 0 .31.14.31.31v.016a5.902 5.902 0 0 1-1.42 4.35.28.28 0 0 1-.41 0m-1-.69a.241.241 0 0 1-.076-.175c0-.066.028-.13.076-.175a4.624 4.624 0 0 0 1.07-3.41c0-.137.113-.25.25-.25s.25.113.25.25a5.162 5.162 0 0 1-1.2 3.75.24.24 0 0 1-.36 0m6.08-.69v.12" fill="#fff" fill-rule="nonzero"/></svg>