<svg xmlns="http://www.w3.org/2000/svg" viewBox="0 0 24 24"><title>icon</title><g id="Ebene_1" data-name="Ebene 1"><circle cx="12" cy="12" r="12" style="fill:#10bc4c"/><path d="M16.8,8.4V6H12v6.6A3,3,0,1,0,13.2,15V8.4h3.6M12,24" style="fill:#fff"/></g><g id="Ebene_2" data-name="Ebene 2"><path d="M15.37,19.13a6.69,6.69,0,0,0,1.36-4.5.37.37,0,0,1,.74-.08,7.49,7.49,0,0,1-1.56,5.08.39.39,0,0,1-.54,0,.42.42,0,0,1,0-.53m-1.1-.26a.3.3,0,0,1,0-.44,5.23,5.23,0,0,0,1.24-3.85.31.31,0,1,1,.61-.06,5.9,5.9,0,0,1-1.42,4.35.28.28,0,0,1-.41,0m-1-.69a.24.24,0,0,1,0-.35,4.62,4.62,0,0,0,1.07-3.41.25.25,0,1,1,.5,0,5.16,5.16,0,0,1-1.2,3.75.24.24,0,0,1-.36,0m6.08-.69,0,.12" style="fill:#fff"/></g></svg>